# xmcd
#
# Track frame offsets:
#	150
#	22135
#	37985
#	58810
#	79962
#	96525
#	116725
#	135450
#	150250
#	172795
#
# Disc length: 2515 seconds
#
# Revision: 1
# Processed by: cddbd v1.5.2PL0 Copyright (c) Steve Scherf et al.
# Submitted via: audiograbber 1.83.01
#
DISCID=7c09d10a
DTITLE=Millie Dillmount and Her Glad Rag Band - Square Dance Tonight (More Coun
DTITLE=try Time Square Dances with Calls)
DYEAR=1993
DGENRE=Country
TTITLE0=Millie Dillmount and Her Glad Rag Band - Daisy Mae Round
TTITLE1=Millie Dillmount and Her Glad Rag Band - Red River Valley
TTITLE2=Millie Dillmount and Her Glad Rag Band - Spanish Cavalier
TTITLE3=Millie Dillmount and Her Glad Rag Band - My Little Girl
TTITLE4=Millie Dillmount and Her Glad Rag Band - Hurry Hurry
TTITLE5=Millie Dillmount and Her Glad Rag Band - Good Old Country Music (Billy 
TTITLE5=Boy)
TTITLE6=Millie Dillmount and Her Glad Rag Band - Virginia Blues (Figure 8)
TTITLE7=Millie Dillmount and Her Glad Rag Band - Wabash Theme (Square Dance Ton
TTITLE7=ight)
TTITLE8=Millie Dillmount and Her Glad Rag Band - Golden Slippers
TTITLE9=Millie Dillmount and Her Glad Rag Band - Soldiers' Joy
EXTD=
EXTT0=
EXTT1=
EXTT2=
EXTT3=
EXTT4=
EXTT5=
EXTT6=
EXTT7=
EXTT8=
EXTT9=
PLAYORDER=
